<svg width="16" height="15" viewBox="0 0 16 15" fill="none" xmlns="http://www.w3.org/2000/svg">
<path opacity="0.4" fill-rule="evenodd" clip-rule="evenodd" d="M6.33333 2.35417C6.33333 2.13567 6.51067 1.95833 6.72917 1.95833H9.10417C9.32267 1.95833 9.5 2.13567 9.5 2.35417V3.54167H6.33333V2.35417ZM3.95833 14.625H11.875V3.54167H11.0833V2.35417C11.0833 1.26325 10.1951 0.375 9.10417 0.375H6.72917C5.63825 0.375 4.75 1.26325 4.75 2.35417V3.54167H3.95833V14.625ZM13.4583 3.54167V14.625C14.7678 14.625 15.8333 13.5594 15.8333 12.25V5.91667C15.8333 4.60725 14.7678 3.54167 13.4583 3.54167ZM0 5.91667C0 4.60725 1.06558 3.54167 2.375 3.54167V14.625C1.06558 14.625 0 13.5594 0 12.25V5.91667Z" fill="#FAFAFA"/>
</svg>
