<svg width="16" height="16" viewBox="0 0 16 16" fill="none" xmlns="http://www.w3.org/2000/svg">
<path d="M14.6113 8.47046H8.04219L12.417 13.1184C12.5843 13.296 12.8594 13.3104 13.0313 13.1384C14.1027 12.066 14.8396 10.6205 15.0559 8.99546C15.093 8.71722 14.8756 8.47046 14.6113 8.47046ZM14.173 6.56458C13.9449 3.05106 11.3022 0.243416 7.99512 0.00106353C7.74265 -0.0174658 7.53004 0.20871 7.53004 0.477533V7.0587H13.7248C13.9779 7.0587 14.1905 6.83281 14.173 6.56458ZM6.20122 8.47046V1.49135C6.20122 1.21047 5.96895 0.979591 5.70734 1.019C2.40827 1.5143 -0.113443 4.57635 0.00393623 8.24605C0.124637 12.0149 3.17898 15.1054 6.72804 15.0581C8.1233 15.0396 9.41253 14.5619 10.4725 13.7631C10.6912 13.5984 10.7056 13.2563 10.516 13.0549L6.20122 8.47046Z" fill="#CE0639"/>
</svg>
