<svg width="17" height="14" viewBox="0 0 17 14" fill="none" xmlns="http://www.w3.org/2000/svg">
<g opacity="0.4">
<path fill-rule="evenodd" clip-rule="evenodd" d="M15.6808 5.73527C15.7011 5.68705 15.7267 5.64194 15.7368 5.58827L16.3194 2.47719C16.3987 2.05487 16.1203 1.64809 15.6979 1.56954C15.2772 1.48865 14.8696 1.76787 14.7903 2.18942L14.5033 3.72396C13.2861 1.45443 10.8742 0 8.22047 0C5.28284 0 2.68898 1.71731 1.61255 4.37495C1.45077 4.77317 1.64288 5.22661 2.0411 5.3876C2.13676 5.42649 2.23554 5.44438 2.33276 5.44438C2.63998 5.44438 2.93164 5.26161 3.05375 4.95828C3.89141 2.89174 5.91905 1.55554 8.22047 1.55554C10.2551 1.55554 12.1039 2.64053 13.0722 4.34073L11.7935 4.12917C11.3689 4.05529 10.9691 4.34539 10.8991 4.7685C10.8291 5.19238 11.1153 5.59294 11.5392 5.66294L14.8447 6.21126C14.8875 6.21904 14.9311 6.22215 14.9731 6.22215C15.0656 6.22215 15.1551 6.20504 15.2391 6.17393C15.2663 6.1646 15.2888 6.14437 15.3145 6.13193C15.3682 6.10549 15.4226 6.07982 15.4693 6.04171C15.4942 6.02071 15.5105 5.99193 15.5331 5.9686C15.5712 5.9266 15.6124 5.88771 15.6419 5.83871C15.6606 5.8076 15.6668 5.76949 15.6808 5.73527Z" fill="#FAFAFA"/>
<path fill-rule="evenodd" clip-rule="evenodd" d="M14.2918 8.61241C13.8944 8.45141 13.4402 8.64274 13.2792 9.04174C12.4415 11.1083 10.4139 12.4445 8.11244 12.4445C6.07779 12.4445 4.22904 11.3595 3.26071 9.65929L4.53937 9.87084C4.58214 9.87862 4.62492 9.88173 4.66692 9.88173C5.04103 9.88173 5.3708 9.61184 5.4338 9.23151C5.5038 8.80763 5.21758 8.4063 4.7937 8.33708L1.48818 7.78798C1.39718 7.77242 1.31085 7.78098 1.22529 7.79498C1.21518 7.79653 1.20429 7.79342 1.19418 7.79575C1.10474 7.8152 1.02385 7.85331 0.948407 7.90231C0.939852 7.90775 0.928185 7.90931 0.91963 7.91553C0.864408 7.95286 0.823186 8.00653 0.778853 8.05786C0.756298 8.08353 0.728298 8.10297 0.709632 8.13175C0.680855 8.1753 0.669188 8.22975 0.649744 8.27875C0.632633 8.32386 0.605411 8.36352 0.596078 8.41175L0.0135288 11.5228C-0.0658036 11.9452 0.21186 12.3519 0.634188 12.4305C0.68241 12.4398 0.730632 12.4445 0.778076 12.4445C1.14596 12.4445 1.47262 12.1839 1.54184 11.8098L1.82962 10.2761C3.04683 12.5456 5.45869 14 8.11244 14C11.0501 14 13.6439 12.2827 14.7204 9.62507C14.8821 9.22685 14.69 8.77341 14.2918 8.61241Z" fill="#FAFAFA"/>
</g>
</svg>
