<svg width="16" height="16" viewBox="0 0 16 16" fill="none" xmlns="http://www.w3.org/2000/svg">
<g opacity="0.4">
<path d="M7.7093 1.58142H2.49096C2.09553 1.58142 1.7163 1.7385 1.43669 2.01811C1.15708 2.29772 1 2.67695 1 3.07238V13.5091C1 13.9045 1.15708 14.2837 1.43669 14.5633C1.7163 14.8429 2.09553 15 2.49096 15H12.9276C13.3231 15 13.7023 14.8429 13.9819 14.5633C14.2615 14.2837 14.4186 13.9045 14.4186 13.5091V8.29072" stroke="#FAFAFA" stroke-width="2" stroke-linecap="round" stroke-linejoin="round"/>
<path d="M13.3002 0.463181C13.5967 0.166611 13.999 -4.41923e-09 14.4184 0C14.8378 4.41923e-09 15.24 0.166611 15.5366 0.463181C15.8332 0.75975 15.9998 1.16198 15.9998 1.5814C15.9998 2.00081 15.8332 2.40304 15.5366 2.69961L8.45457 9.78165L5.47266 10.5271L6.21813 7.54522L13.3002 0.463181Z" fill="#FAFAFA"/>
</g>
</svg>
