<svg width="48" height="44" viewBox="0 0 48 44" fill="none" xmlns="http://www.w3.org/2000/svg">
<path fill-rule="evenodd" clip-rule="evenodd" d="M19.2018 5.99991C19.2018 5.33754 19.7394 4.79996 20.4018 4.79996H27.6015C28.2639 4.79996 28.8014 5.33754 28.8014 5.99991V9.59977H19.2018V5.99991ZM12.0009 43.1982H35.9999V9.59961H33.6V5.99975C33.6 2.69269 30.9073 0 27.6003 0H20.4006C17.0935 0 14.4008 2.69269 14.4008 5.99975V9.59961H12.0009V43.1982ZM40.8009 9.59948V43.1981C44.7703 43.1981 48.0006 39.9678 48.0006 35.9984V16.7992C48.0006 12.8297 44.7703 9.59948 40.8009 9.59948ZM0 16.7992C0 12.8297 3.23027 9.59948 7.1997 9.59948V43.1981C3.23027 43.1981 0 39.9678 0 35.9984V16.7992Z" fill="#ffffff"/>
</svg>
