<svg width="36" height="34" viewBox="0 0 36 34" fill="none" xmlns="http://www.w3.org/2000/svg">
<path fill-rule="evenodd" clip-rule="evenodd" d="M33.334 0H29.1673C28.0215 0 27.084 0.9375 27.084 2.08333C27.084 3.22917 28.0215 4.16667 29.1673 4.16667H31.2506V29.1667H29.1673C28.0215 29.1667 27.084 30.1042 27.084 31.25C27.084 32.3958 28.0215 33.3333 29.1673 33.3333H33.334C34.4798 33.3333 35.4173 32.3958 35.4173 31.25V2.08333C35.4173 0.9375 34.4798 0 33.334 0Z" fill="#CE0639"/>
<path fill-rule="evenodd" clip-rule="evenodd" d="M18.3333 7.08414C17.6437 6.16539 16.3417 5.97789 15.4167 6.66748C14.4958 7.35706 14.3104 8.66331 15 9.58206L18.7521 14.5841H18.75H2.08333C0.933333 14.5841 0 15.5154 0 16.6675C0 17.8175 0.933333 18.7508 2.08333 18.7508H18.75C18.8125 18.7508 18.8667 18.7196 18.9292 18.7133L15.35 23.8008C14.6875 24.7425 14.9146 26.0425 15.8562 26.705C16.2208 26.9612 16.6396 27.0841 17.0521 27.0841C17.7083 27.0841 18.3521 26.7758 18.7583 26.1987L24.6208 17.8654C25.1417 17.1258 25.125 16.1383 24.5833 15.4175L18.3333 7.08414Z" fill="#CE0639"/>
</svg>
