<svg width="42" height="42" viewBox="0 0 42 42" fill="none" xmlns="http://www.w3.org/2000/svg">
<path fill-rule="evenodd" clip-rule="evenodd" d="M39.2104 25.12C38.1208 24.7325 36.9333 25.3013 36.5521 26.3888C34.2021 33.0346 27.8833 37.4992 20.8333 37.4992C11.6438 37.4992 4.16667 30.0242 4.16667 20.8325C4.16667 13.7825 8.63125 7.46378 15.2771 5.11378C16.3625 4.73253 16.9312 3.54295 16.5479 2.45753C16.1646 1.3742 14.975 0.803363 13.8896 1.18878C5.58125 4.1242 0 12.0179 0 20.8325C0 32.32 9.34583 41.6659 20.8333 41.6659C29.6479 41.6659 37.5417 36.0867 40.4792 27.7763C40.8625 26.6929 40.2958 25.5034 39.2104 25.12Z" fill="#CE0639"/>
<path d="M22.833 2.08333C22.833 2.03712 22.8696 2 22.9163 2C32.1494 2 39.6663 9.51513 39.6663 18.75C39.6663 18.7962 39.6297 18.8333 39.583 18.8333H22.9163C22.8696 18.8333 22.833 18.7962 22.833 18.75V2.08333Z" stroke="#CE0639" stroke-width="4"/>
</svg>

