<svg width="42" height="42" viewBox="0 0 42 42" fill="none" xmlns="http://www.w3.org/2000/svg">
<mask id="path-1-inside-1" fill="white">
<path fill-rule="evenodd" clip-rule="evenodd" d="M20.8333 0C9.34583 0 0 9.34583 0 20.8333C0 32.3208 9.34583 41.6667 20.8333 41.6667C32.3208 41.6667 41.6667 32.3208 41.6667 20.8333C41.6667 9.34583 32.3208 0 20.8333 0Z"/>
</mask>
<path d="M20.8333 -4C7.1367 -4 -4 7.1367 -4 20.8333H4C4 11.555 11.555 4 20.8333 4V-4ZM-4 20.8333C-4 34.53 7.1367 45.6667 20.8333 45.6667V37.6667C11.555 37.6667 4 30.1117 4 20.8333H-4ZM20.8333 45.6667C34.53 45.6667 45.6667 34.53 45.6667 20.8333H37.6667C37.6667 30.1117 30.1117 37.6667 20.8333 37.6667V45.6667ZM45.6667 20.8333C45.6667 7.1367 34.53 -4 20.8333 -4V4C30.1117 4 37.6667 11.555 37.6667 20.8333H45.6667Z" fill="#CE0639" mask="url(#path-1-inside-1)"/>
<path fill-rule="evenodd" clip-rule="evenodd" d="M29.1667 18.75H22.9167V12.5C22.9167 11.3479 21.9833 10.4166 20.8333 10.4166C19.6833 10.4166 18.75 11.3479 18.75 12.5V20.8333C18.75 21.9854 19.6833 22.9166 20.8333 22.9166H29.1667C30.3187 22.9166 31.25 21.9854 31.25 20.8333C31.25 19.6812 30.3187 18.75 29.1667 18.75Z" fill="#CE0639"/>
</svg>
