<svg width="40" height="38" viewBox="0 0 40 38" fill="none" xmlns="http://www.w3.org/2000/svg">
<path fill-rule="evenodd" clip-rule="evenodd" d="M38.867 2.59499C37.9982 1.84082 36.6836 1.9304 35.9274 2.79915L32.0399 7.2679L30.719 5.79082C29.9545 4.93248 28.6378 4.85957 27.7774 5.62832C26.9211 6.39498 26.8461 7.71373 27.6149 8.56998L30.5086 11.8054C30.9045 12.2471 31.469 12.4992 32.0607 12.4992H32.0753C32.6732 12.495 33.242 12.2346 33.6336 11.7846L39.0732 5.53457C39.8274 4.66582 39.7357 3.34915 38.867 2.59499Z" fill="#CE0639"/>
<path fill-rule="evenodd" clip-rule="evenodd" d="M14.5833 20.8334C6.54375 20.8334 0 27.375 0 35.4167C0 36.5667 0.93125 37.5 2.08333 37.5C3.23542 37.5 4.16667 36.5667 4.16667 35.4167C4.16667 29.673 8.83958 25 14.5833 25C20.3271 25 25 29.673 25 35.4167C25 36.5667 25.9312 37.5 27.0833 37.5C28.2354 37.5 29.1667 36.5667 29.1667 35.4167C29.1667 27.375 22.6229 20.8334 14.5833 20.8334Z" fill="#CE0639"/>
<mask id="path-3-inside-1" fill="white">
<path fill-rule="evenodd" clip-rule="evenodd" d="M14.5833 16.6667C19.1792 16.6667 22.9167 12.9292 22.9167 8.33333C22.9167 3.7375 19.1792 0 14.5833 0C9.9875 0 6.25 3.7375 6.25 8.33333C6.25 12.9292 9.9875 16.6667 14.5833 16.6667Z"/>
</mask>
<path d="M14.5833 20.6667C21.3883 20.6667 26.9167 15.1383 26.9167 8.33333H18.9167C18.9167 10.72 16.97 12.6667 14.5833 12.6667V20.6667ZM26.9167 8.33333C26.9167 1.52836 21.3883 -4 14.5833 -4V4C16.97 4 18.9167 5.94664 18.9167 8.33333H26.9167ZM14.5833 -4C7.77836 -4 2.25 1.52836 2.25 8.33333H10.25C10.25 5.94664 12.1966 4 14.5833 4V-4ZM2.25 8.33333C2.25 15.1383 7.77836 20.6667 14.5833 20.6667V12.6667C12.1966 12.6667 10.25 10.72 10.25 8.33333H2.25Z" fill="#CE0639" mask="url(#path-3-inside-1)"/>
</svg>
