<svg width="42" height="38" viewBox="0 0 42 38" fill="none" xmlns="http://www.w3.org/2000/svg">
<path fill-rule="evenodd" clip-rule="evenodd" d="M22.3068 17.2774C21.5047 16.4732 20.2068 16.467 19.386 17.2503L13.136 23.2857C12.3089 24.0857 12.286 25.4024 13.086 26.2315C13.886 27.0586 15.2047 27.0857 16.0318 26.2836L18.7505 23.6586V35.417C18.7505 36.569 19.6839 37.5003 20.8339 37.5003C21.9839 37.5003 22.9172 36.569 22.9172 35.417V23.7795L25.611 26.4732C26.0172 26.8795 26.5505 27.0836 27.0839 27.0836C27.6172 27.0836 28.1505 26.8795 28.5568 26.4732C29.3714 25.6586 29.3714 24.342 28.5568 23.5274L22.3068 17.2774Z" fill="#CE0639"/>
<path fill-rule="evenodd" clip-rule="evenodd" d="M32.6563 8.42708C30.9479 3.46042 26.2104 0 20.8333 0C15.4583 0 10.7208 3.46042 9.01042 8.42708C3.92917 9.11667 0 13.4833 0 18.75C0 21.2937 0.925 23.7417 2.60625 25.6437C3.36667 26.5042 4.68333 26.5896 5.54583 25.8271C6.40833 25.0625 6.48958 23.7479 5.72917 22.8833C4.72083 21.7458 4.16667 20.275 4.16667 18.75C4.16667 15.3042 6.97083 12.5 10.4167 12.5H10.625C11.6167 12.5 12.4729 11.8 12.6688 10.8271C13.4458 6.96875 16.8813 4.16667 20.8333 4.16667C24.7875 4.16667 28.2208 6.96875 29 10.8271C29.1958 11.8 30.05 12.5 31.0417 12.5H31.25C34.6958 12.5 37.5 15.3042 37.5 18.75C37.5 20.275 36.9458 21.7458 35.9396 22.8833C35.1771 23.7479 35.2604 25.0625 36.1208 25.8271C36.5188 26.1771 37.0104 26.3479 37.5 26.3479C38.0771 26.3479 38.65 26.1083 39.0625 25.6437C40.7417 23.7417 41.6667 21.2937 41.6667 18.75C41.6667 13.4833 37.7375 9.11667 32.6563 8.42708Z" fill="#CE0639"/>
</svg>
