<svg width="39" height="43" viewBox="0 0 39 43" fill="none" xmlns="http://www.w3.org/2000/svg">
<path fill-rule="evenodd" clip-rule="evenodd" d="M32.25 4.30005V10.75C32.25 13.1215 30.3214 15.05 27.95 15.05H10.75C8.37854 15.05 6.44999 13.1215 6.44999 10.75V4.30005C2.8939 4.30005 0 7.19395 0 10.75V36.55C0 40.1061 2.8939 43 6.44999 43H32.25C35.8061 43 38.7 40.1061 38.7 36.55V10.75C38.7 7.19395 35.8061 4.30005 32.25 4.30005ZM5.9541 20.8384H32.7464V22.3269H5.9541V20.8384ZM32.7464 29.7692H5.9541V31.2577H32.7464V29.7692Z" fill="#ffffff"/>
<path fill-rule="evenodd" clip-rule="evenodd" d="M27.9496 12.9H10.7496C9.56281 12.9 8.59961 11.9389 8.59961 10.75V2.15C8.59961 0.961049 9.56281 0 10.7496 0H27.9496C29.1364 0 30.0996 0.961049 30.0996 2.15V10.75C30.0996 11.9389 29.1364 12.9 27.9496 12.9Z" fill="#ffffff"/>
</svg>
