<svg width="54" height="37" viewBox="0 0 54 37" fill="none" xmlns="http://www.w3.org/2000/svg">
<path d="M8.1 15.8571C11.0784 15.8571 13.5 13.4868 13.5 10.5714C13.5 7.65603 11.0784 5.28571 8.1 5.28571C5.12156 5.28571 2.7 7.65603 2.7 10.5714C2.7 13.4868 5.12156 15.8571 8.1 15.8571ZM45.9 15.8571C48.8784 15.8571 51.3 13.4868 51.3 10.5714C51.3 7.65603 48.8784 5.28571 45.9 5.28571C42.9216 5.28571 40.5 7.65603 40.5 10.5714C40.5 13.4868 42.9216 15.8571 45.9 15.8571ZM48.6 18.5H43.2C41.715 18.5 40.3734 19.0864 39.3947 20.0362C42.795 21.8614 45.2081 25.1567 45.7313 29.0714H51.3C52.7934 29.0714 54 27.8904 54 26.4286V23.7857C54 20.8703 51.5784 18.5 48.6 18.5ZM27 18.5C32.2228 18.5 36.45 14.3623 36.45 9.25C36.45 4.13772 32.2228 0 27 0C21.7772 0 17.55 4.13772 17.55 9.25C17.55 14.3623 21.7772 18.5 27 18.5ZM33.48 21.1429H32.7797C31.0247 21.9688 29.0756 22.4643 27 22.4643C24.9244 22.4643 22.9838 21.9688 21.2203 21.1429H20.52C15.1538 21.1429 10.8 25.4045 10.8 30.6571V33.0357C10.8 35.2243 12.6141 37 14.85 37H39.15C41.3859 37 43.2 35.2243 43.2 33.0357V30.6571C43.2 25.4045 38.8462 21.1429 33.48 21.1429ZM14.6053 20.0362C13.6266 19.0864 12.285 18.5 10.8 18.5H5.4C2.42156 18.5 0 20.8703 0 23.7857V26.4286C0 27.8904 1.20656 29.0714 2.7 29.0714H8.26031C8.79187 25.1567 11.205 21.8614 14.6053 20.0362Z" fill="#CE0639"/>
</svg>
