<svg width="48" height="48" viewBox="0 0 48 48" fill="none" xmlns="http://www.w3.org/2000/svg">
<mask id="mask0" mask-type="alpha" maskUnits="userSpaceOnUse" x="4" y="4" width="40" height="40">
<circle cx="24" cy="24" r="20" fill="#C4C4C4"/>
</mask>
<g mask="url(#mask0)">
<g opacity="0.2">
<path d="M24 4C12.9516 4 4 12.9516 4 24C4 35.0484 12.9516 44 24 44C35.0484 44 44 35.0484 44 24C44 12.9516 35.0484 4 24 4ZM24 11.7419C27.9194 11.7419 31.0968 14.9194 31.0968 18.8387C31.0968 22.7581 27.9194 25.9355 24 25.9355C20.0806 25.9355 16.9032 22.7581 16.9032 18.8387C16.9032 14.9194 20.0806 11.7419 24 11.7419ZM24 39.4839C19.2661 39.4839 15.0242 37.3387 12.1855 33.9839C13.7016 31.129 16.6694 29.1613 20.129 29.1613C20.3226 29.1613 20.5161 29.1935 20.7016 29.25C21.75 29.5887 22.8468 29.8064 24 29.8064C25.1532 29.8064 26.2581 29.5887 27.2984 29.25C27.4839 29.1935 27.6774 29.1613 27.871 29.1613C31.3306 29.1613 34.2984 31.129 35.8145 33.9839C32.9758 37.3387 28.7339 39.4839 24 39.4839Z" fill="#2D3A4F"/>
</g>
</g>
<circle cx="24" cy="24" r="22.75" stroke="#DFE0EB" stroke-width="1.5"/>
</svg>
