<svg width="42" height="42" viewBox="0 0 42 42" fill="none" xmlns="http://www.w3.org/2000/svg">
<path fill-rule="evenodd" clip-rule="evenodd" d="M26.4682 13.3217L18.5849 23.6738L15.1828 19.328C14.4745 18.4196 13.162 18.2613 12.2578 18.9717C11.3515 19.6801 11.1911 20.9905 11.9015 21.8946L16.9661 28.3676C17.362 28.8717 17.9661 29.1655 18.6078 29.1655H18.6224C19.2661 29.1634 19.8745 28.8592 20.264 28.3446L29.7828 15.8446C30.4807 14.928 30.3036 13.6238 29.387 12.9259C28.4682 12.228 27.164 12.4071 26.4682 13.3217Z" fill="#CE0639"/>
<mask id="path-2-inside-1" fill="white">
<path fill-rule="evenodd" clip-rule="evenodd" d="M20.8333 0C9.32708 0 0 9.32917 0 20.8333C0 32.3375 9.32708 41.6667 20.8333 41.6667C32.3396 41.6667 41.6667 32.3375 41.6667 20.8333C41.6667 9.32917 32.3396 0 20.8333 0Z"/>
</mask>
<path d="M20.8333 -4C7.11768 -4 -4 7.12029 -4 20.8333H4C4 11.538 11.5365 4 20.8333 4V-4ZM-4 20.8333C-4 34.5464 7.11768 45.6667 20.8333 45.6667V37.6667C11.5365 37.6667 4 30.1286 4 20.8333H-4ZM20.8333 45.6667C34.549 45.6667 45.6667 34.5464 45.6667 20.8333H37.6667C37.6667 30.1286 30.1302 37.6667 20.8333 37.6667V45.6667ZM45.6667 20.8333C45.6667 7.12029 34.549 -4 20.8333 -4V4C30.1302 4 37.6667 11.538 37.6667 20.8333H45.6667Z" fill="#CE0639" mask="url(#path-2-inside-1)"/>
</svg>
