<svg width="51" height="43" viewBox="0 0 51 43" fill="none" xmlns="http://www.w3.org/2000/svg">
<path fill-rule="evenodd" clip-rule="evenodd" d="M48.1613 17.6154C48.2234 17.4673 48.3022 17.3288 48.3333 17.1639L50.1225 7.60851C50.3662 6.31136 49.511 5.06199 48.2138 4.82072C46.9215 4.57228 45.6697 5.42988 45.426 6.72464L44.5445 11.4379C40.806 4.46717 33.3981 0 25.2473 0C16.2246 0 8.25778 5.2746 4.9516 13.4373C4.45472 14.6604 5.04477 16.0531 6.26786 16.5476C6.56169 16.6671 6.86508 16.722 7.16368 16.722C8.10728 16.722 9.0031 16.1606 9.37816 15.229C11.951 8.88178 18.1787 4.77772 25.2473 4.77772C31.4966 4.77772 37.1749 8.11017 40.149 13.3322L36.2218 12.6825C34.9174 12.4555 33.6896 13.3466 33.4746 14.6461C33.2596 15.948 34.1387 17.1783 35.4406 17.3933L45.5933 19.0774C45.7246 19.1013 45.8584 19.1109 45.9874 19.1109C46.2717 19.1109 46.5464 19.0583 46.8044 18.9628C46.888 18.9341 46.9573 18.872 47.0361 18.8338C47.201 18.7525 47.3682 18.6737 47.5115 18.5567C47.588 18.4922 47.6381 18.4038 47.7074 18.3321C47.8245 18.2031 47.9511 18.0837 48.0418 17.9332C48.0992 17.8376 48.1183 17.7206 48.1613 17.6154Z" fill="#ffffff"/>
<path fill-rule="evenodd" clip-rule="evenodd" d="M43.8962 26.4525C42.6755 25.958 41.2804 26.5457 40.7859 27.7711C38.2131 34.1183 31.9854 38.2224 24.9167 38.2224C18.6675 38.2224 12.9892 34.8899 10.015 29.6679L13.9423 30.3177C14.0737 30.3416 14.2051 30.3511 14.3341 30.3511C15.4831 30.3511 16.496 29.5222 16.6895 28.354C16.9045 27.0521 16.0254 25.8195 14.7235 25.6068L4.57083 23.9203C4.29133 23.8725 4.02617 23.8988 3.76339 23.9418C3.73234 23.9466 3.6989 23.937 3.66784 23.9442C3.39312 24.0039 3.14468 24.121 2.91296 24.2715C2.88668 24.2882 2.85085 24.293 2.82457 24.3121C2.65496 24.4267 2.52835 24.5916 2.39219 24.7492C2.32291 24.8281 2.23691 24.8878 2.17958 24.9762C2.09119 25.11 2.05536 25.2772 1.99564 25.4277C1.94308 25.5662 1.85947 25.6881 1.83081 25.8362L0.0415527 35.3916C-0.202111 36.6888 0.650712 37.9381 1.94786 38.1794C2.09597 38.2081 2.24408 38.2224 2.3898 38.2224C3.51973 38.2224 4.52305 37.4221 4.73566 36.2731L5.61954 31.5623C9.3581 38.533 16.766 43.0001 24.9167 43.0001C33.9395 43.0001 41.9063 37.7255 45.2125 29.5628C45.7094 28.3397 45.1193 26.947 43.8962 26.4525Z" fill="#ffffff"/>
</svg>
